<svg data-v-70b83f88="" version="1.0" xmlns="http://www.w3.org/2000/svg" xmlns:xlink="http://www.w3.org/1999/xlink" width="100%" height="100%" viewBox="0 0 340.000000 250.000000" preserveAspectRatio="xMidYMid meet" color-interpolation-filters="sRGB" style="margin: auto;"> <rect data-v-70b83f88="" x="0" y="0" width="100%" height="100%" fill="#fff" fill-opacity="0" class="background"></rect> <rect data-v-70b83f88="" x="0" y="0" width="100%" height="100%" fill="url(#watermark)" fill-opacity="1" class="watermarklayer"></rect> <g data-v-70b83f88="" fill="#5F9BF1" class="iconblsvg-g iconsvg" transform="translate(7.8466796875,93.15500068664551)"><g class="tp-name" opacity="1" transform="matrix(1,0,0,1,0,0)"><g data-gra="path-name" transform="translate(0, 5.307500000000001)"><g transform="scale(1)"><path d="M35.23-4.98Q30.09 0.77 21.61 0.77 13.14 0.77 8-4.98 2.86-10.72 2.86-20.65 2.86-30.58 7.97-36.13 13.09-41.69 21.61-41.69 30.14-41.69 35.26-36.11 40.37-30.52 40.37-20.63 40.37-10.72 35.23-4.98ZM15.26-11.22Q17.6-7.7 21.61-7.7 25.63-7.7 28-11.22 30.36-14.74 30.36-20.65 30.36-26.57 28.02-29.92 25.68-33.27 21.61-33.27 17.55-33.27 15.23-29.95 12.93-26.62 12.93-20.68 12.93-14.74 15.26-11.22ZM53.92 7.81Q53.98 11.38 49.08 11.38 44.19 11.38 44.19 7.81L44.19 7.81 44.19-31.3 52.16-31.3 52.88-28.27Q57.33-32.06 61.84-32.06L61.84-32.06Q67.45-32.06 70.75-27.72L70.75-27.72Q74.06-23.43 74.06-15.95 74.06-8.47 70.15-3.85 66.25 0.77 60.91 0.77L60.91 0.77Q56.89 0.77 53.65-2.48L53.65-2.48 53.92 7.81ZM53.98-21.45L53.98-9.07Q56.02-7.26 58.49-7.26L58.49-7.26Q61.02-7.26 62.5-9.4 63.99-11.55 63.99-16L63.99-16Q63.99-24.09 58.93-24.09L58.93-24.09Q56.4-24.09 53.98-21.45L53.98-21.45ZM99.49-8.69L101.03-5.94Q102.73-2.81 99.71-0.88L99.71-0.88Q97.73 0.77 91.13 0.77L91.13 0.77Q84.58 0.77 80.07-3.63L80.07-3.63Q75.62-8.09 75.62-15.51L75.62-15.51Q75.62-22.99 80.07-27.5L80.07-27.5Q84.53-32.06 90.74-32.06 96.96-32.06 100.42-27.89 103.89-23.71 103.89-17L103.89-17 103.78-16.34Q103.45-12.76 99.87-12.76L99.87-12.76 85.08-12.76Q86.34-6.71 92.89-6.71L92.89-6.71Q96.08-6.71 99.49-8.69L99.49-8.69ZM86.95-23.21L85.35-20.13Q84.91-19.2 85.96-19.2L85.96-19.2 94.54-19.2Q95.58-19.2 95.47-20.18L95.47-20.18Q95.58-24.59 90.63-24.59L90.63-24.59Q88.49-24.59 86.95-23.21L86.95-23.21ZM116.95-3.58Q116.95 0 112.05 0 107.16 0 107.16-3.58L107.16-3.58 107.16-31.3 115.13-31.3 115.85-27.39Q120.8-32.06 126.02-32.06L126.02-32.06Q135.76-32.06 135.76-19.36L135.76-19.36 135.76-3.58Q135.76 0 130.86 0 125.97 0 125.97-3.58L125.97-3.58 125.97-18.15Q125.97-21.29 125.09-22.5L125.09-22.5Q124.26-23.71 122.5-23.71L122.5-23.71Q120.8-23.71 119.64-23.05 118.49-22.39 116.95-20.9L116.95-20.9 116.95-3.58Z" transform="translate(-2.8600001335144043, 41.689998626708984)"></path></g></g> <g transform="translate(135.89999389648438, 0)"><g><g class="imagesvg"><g><rect fill="#5F9BF1" fill-opacity="0" stroke-width="2" x="0" y="0" width="64.69439129999999" height="63.68999999999999" class="image-rect"></rect> <svg x="0" y="0" width="64.69439129999999" height="63.68999999999999" filtersec="colorsb557643628" class="image-svg-svg primary" style="overflow: visible;"><svg xmlns="http://www.w3.org/2000/svg" viewBox="0.4385022521018982 -0.000009216904800268821 101.5615005493164 99.98497772216797"><path d="M69.3 59.41l-9.89 9.89L51 77.73 30.46 98.26A6 6 0 0 1 22 89.83L42.56 69.3 51 60.88l9.9-9.9zM102 24.28a6 6 0 0 1-1.75 4.21L77.72 51l-8.42-8.44 22.5-22.5a6 6 0 0 1 10.2 4.22z" fill="#0059cc"></path><path d="M83.64 6a5.94 5.94 0 0 1-1.74 4.21L41.08 51l-8.42-8.42 9.9-9.89L51 24.24 73.48 1.75A6 6 0 0 1 83.64 6zM32.66 59.41L12.13 79.93a6 6 0 0 1-8.42-8.42L24.24 51z" fill="#00dac7"></path><path d="M51 24.24l-8.42 8.43-22.5-22.5A6 6 0 0 1 24.28 0a5.89 5.89 0 0 1 4.2 1.75zM98.25 79.93a5.94 5.94 0 0 1-8.42 0L51 41.09l8.42-8.42 9.9 9.89 8.4 8.44 20.53 20.51a6 6 0 0 1 0 8.42z" fill="#00baec"></path><path d="M51 60.88l-8.44 8.42L1.74 28.49a6 6 0 0 1 8.43-8.43l22.49 22.5L41.08 51zM79.93 98.26a6 6 0 0 1-8.42 0L51 77.73l8.42-8.43 20.51 20.53a6 6 0 0 1 0 8.43z" fill="#00abd8"></path></svg></svg> <!----></g></g></g></g> <g data-gra="path-name-1" fill="#5F9BF1" transform="translate(203.5943832397461, 5.307500000000001)"><g transform="scale(1)"><path d="M14.69-20.46L14.69-20.46 13.8-17 22.16-17 21.29-20.46Q20.73-22.61 19.64-27.11 18.54-31.63 18.04-33.6L18.04-33.6Q15.68-24.36 14.69-20.46ZM6 0L3.14 0Q-0.44 0 0.6-3.41L0.6-3.41 12.27-40.98 24.04-40.98 35.7-3.41Q36.74 0 33.16 0L33.16 0 29.98 0Q26.4 0 25.57-3.46L25.57-3.46 24.04-9.4 11.94-9.4 10.39-3.46Q9.57 0 6 0L6 0ZM42.92 0L42.92 0Q38.03 0 38.03-3.58L38.03-3.58 38.03-40.98 47.88-40.98 47.88-3.58Q47.88 0 42.92 0ZM72.7 0.77L72.7 0.77Q63.85 0.77 58.13-4.73 52.41-10.23 52.41-20.18 52.41-30.14 58.18-35.91L58.18-35.91Q64.02-41.69 72.16-41.69 80.3-41.69 82.88-38.61L82.88-38.61Q85.63-36.35 83.04-33.22 80.46-30.09 77.82-32.45L77.82-32.45Q76.88-33.27 72.54-33.27L72.54-33.27Q68.25-33.27 65.33-29.86L65.33-29.86Q62.47-26.46 62.47-20.41 62.47-14.36 65.28-11L65.28-11Q68.08-7.7 73.75-7.7L73.75-7.7Q76.22-7.7 76.66-8.3L76.66-8.3Q77.6-8.74 77.6-9.79L77.6-9.79 77.6-15.35 74.69-15.35Q71.11-15.35 71.11-18.92L71.11-18.92 71.11-23.38 86.34-23.38 86.34-4.24Q84.09-2.04 80.46-0.6L80.46-0.6Q76.83 0.77 72.7 0.77ZM117.11-11.44L120.03-7.97Q122.28-5.28 119.7-2.86L119.7-2.86Q117.06 0.77 108.86 0.77L108.86 0.77Q100.72 0.77 95.22-4.73L95.22-4.73Q89.72-10.29 89.72-20.18 89.72-30.09 95.39-35.86L95.39-35.86Q101.11-41.69 109.25-41.69L109.25-41.69Q116.45-41.69 118.98-38.66L118.98-38.66Q121.68-36.35 119.09-33.22L119.09-33.22Q116.56-30.09 113.87-32.45L113.87-32.45Q112.99-33.27 109.14-33.27 105.29-33.27 102.54-29.81L102.54-29.81Q99.79-26.4 99.79-20.46 99.79-14.52 102.32-11.11L102.32-11.11Q104.91-7.7 109.25-7.7L109.25-7.7Q113.65-7.7 117.11-11.44L117.11-11.44Z" transform="translate(-0.3658871650695801, 41.689998626708984)"></path></g></g></g> <!----></g><defs v-gra="od"></defs></svg>